<?xml version="1.0" encoding="UTF-8"?>
<svg width="218px" height="287px" viewBox="0 0 218 287" version="1.1" xmlns="http://www.w3.org/2000/svg" xmlns:xlink="http://www.w3.org/1999/xlink">
    <!-- Generator: Sketch 48.1 (47250) - http://www.bohemiancoding.com/sketch -->
    <title>image-无记录</title>
    <desc>Created with Sketch.</desc>
    <defs>
        <rect id="path-1" x="0" y="0" width="300" height="300"></rect>
        <rect id="path-3" x="28.6632654" y="118.866839" width="9.58778626" height="88.5714286" rx="4.79389313"></rect>
        <ellipse id="path-4" cx="78.3526612" cy="78.7591389" rx="57.0909091" ry="57.1428571"></ellipse>
    </defs>
    <g id="空缺页" stroke="none" stroke-width="1" fill="none" fill-rule="evenodd" transform="translate(-245.000000, -407.000000)">
        <g id="image-无记录" transform="translate(225.000000, 400.000000)">
            <mask id="mask-2" fill="white">
                <use xlink:href="#path-1"></use>
            </mask>
            <use id="Mask" fill="#D8D8D8" opacity="0" xlink:href="#path-1"></use>
            <g id="Group-7" mask="url(#mask-2)">
                <g transform="translate(20.000000, 7.000000)">
                    <g id="Group-6" stroke-width="1" fill="none">
                        <path d="M201.2,10.806 C201.206,10.206 201.41,7.2 204.8,7.2 L204.806,7.2 L204.818,7.2 L204.83,7.2 L204.836,7.2 C205.478,7.182 206,6.654 206,6 C206,5.34 205.466,4.806 204.806,4.8 C204.2,4.794 201.2,4.59 201.2,1.2 C201.2,0.54 200.66,0 200,0 C199.334,0 198.8,0.54 198.8,1.2 C198.8,4.59 195.794,4.794 195.194,4.8 C194.534,4.806 194,5.34 194,6 C194,6.666 194.534,7.2 195.2,7.2 C198.584,7.2 198.794,10.206 198.8,10.8 L198.8,10.806 L198.8,10.83 L198.8,10.836 C198.818,11.484 199.346,12 200,12 C200.66,12 201.194,11.466 201.2,10.806" id="Fill-31" fill="#487ABD"></path>
                        <path d="M51.2,22.806 C51.206,22.2 51.416,19.2 54.8,19.2 L54.806,19.2 L54.824,19.2 L54.836,19.2 C55.484,19.182 56,18.648 56,18 C56,17.34 55.466,16.8 54.806,16.8 C54.206,16.794 51.2,16.584 51.2,13.2 C51.2,12.534 50.666,12 50,12 C49.34,12 48.8,12.534 48.8,13.2 C48.8,16.584 45.8,16.794 45.194,16.8 C44.534,16.8 44,17.34 44,18 C44,18.66 44.54,19.2 45.2,19.2 C48.59,19.2 48.794,22.206 48.8,22.8 L48.8,22.806 C48.8,22.812 48.806,22.824 48.8,22.824 L48.8,22.836 C48.818,23.478 49.352,24 50,24 C50.66,24 51.2,23.466 51.2,22.806" id="Fill-32" fill="#487ABD"></path>
                        <path d="M213.2,168.806 C213.206,168.2 213.416,165.2 216.8,165.2 L216.806,165.2 L216.824,165.2 L216.836,165.2 C217.484,165.182 218,164.648 218,164 C218,163.34 217.466,162.8 216.806,162.8 C216.206,162.794 213.2,162.584 213.2,159.2 C213.2,158.534 212.666,158 212,158 C211.34,158 210.8,158.534 210.8,159.2 C210.8,162.584 207.8,162.794 207.194,162.8 C206.534,162.8 206,163.34 206,164 C206,164.66 206.54,165.2 207.2,165.2 C210.59,165.2 210.794,168.206 210.8,168.8 L210.8,168.806 C210.8,168.812 210.806,168.824 210.8,168.824 L210.8,168.836 C210.818,169.478 211.352,170 212,170 C212.66,170 213.2,169.466 213.2,168.806" id="Fill-32-Copy" fill="#487ABD"></path>
                        <path d="M14.4,191.612 C14.412,190.406 14.826,184.4 21.6,184.4 L21.612,184.4 L21.642,184.4 L21.648,184.4 L21.654,184.4 L21.66,184.4 L21.672,184.4 C22.962,184.364 24,183.302 24,182 C24,180.68 22.932,179.606 21.612,179.6 C20.406,179.588 14.4,179.174 14.4,172.4 C14.4,171.074 13.326,170 12,170 C10.674,170 9.6,171.074 9.6,172.4 C9.6,179.174 3.594,179.588 2.388,179.6 C1.068,179.606 0,180.68 0,182 C0,183.326 1.074,184.4 2.4,184.4 C9.174,184.4 9.588,190.412 9.6,191.6 L9.6,191.618 C9.6,191.63 9.606,191.648 9.6,191.648 L9.6,191.654 L9.6,191.66 L9.6,191.672 C9.636,192.962 10.698,194 12,194 C13.32,194 14.394,192.932 14.4,191.612" id="Fill-34" fill="#487ABD"></path>
                    </g>
                    <g id="Group-5" stroke-width="1" fill="none" transform="translate(56.000000, 34.000000)">
                        <g id="Rectangle-11" transform="translate(33.457158, 163.152554) rotate(-330.000000) translate(-33.457158, -163.152554) ">
                            <use fill="#FFFFFF" fill-rule="evenodd" xlink:href="#path-3"></use>
                            <rect stroke="#487ABD" stroke-width="2" x="29.6632654" y="119.866839" width="7.58778626" height="86.5714286" rx="3.79389313"></rect>
                        </g>
                        <g id="Group-4">
                            <g id="Oval-6" transform="translate(78.352661, 78.759139) rotate(-300.000000) translate(-78.352661, -78.759139) ">
                                <use fill="#FFFFFF" fill-rule="evenodd" xlink:href="#path-4"></use>
                                <ellipse stroke="#487ABD" stroke-width="2" cx="78.3526612" cy="78.7591389" rx="58.0909091" ry="58.1428571"></ellipse>
                            </g>
                            <ellipse id="Oval-7" stroke="#DAE4F2" stroke-width="7.68" transform="translate(78.500000, 78.600000) rotate(-420.000000) translate(-78.500000, -78.600000) " cx="78.5" cy="78.6" rx="53.5766412" ry="53.64"></ellipse>
                            <path d="M86.0883923,63.0250022 C83.5949468,65.2950022 83.3879923,69.132145 85.6245286,71.5964307 C87.8624923,74.0607164 91.6975741,74.2192879 94.1910196,71.9478593 C96.684465,69.6792879 96.8928468,65.8407164 94.6548832,63.3764307 C92.4183468,60.912145 88.583265,60.7550022 86.0883923,63.0250022 L86.0883923,63.0250022 Z M110.521874,70.0135736 L110.45051,70.0935736 C108.436629,68.6350022 105.580656,68.742145 103.639565,70.4878593 C101.425865,72.4778593 101.241747,75.842145 103.227083,78.0035736 C103.786574,78.612145 104.464529,79.042145 105.19101,79.3278593 C109.541338,82.5450022 119.318156,91.5507164 115.517329,105.270716 C115.503056,105.325002 115.488783,105.376431 115.475938,105.430716 C115.45881,105.492145 115.447392,105.552145 115.428838,105.613574 C115.428838,105.613574 115.434547,105.625002 115.44311,105.640716 C115.136247,107.222145 115.533029,108.910716 116.701965,110.183574 C118.687301,112.345002 122.091347,112.483574 124.305047,110.492145 C125.195665,109.692145 125.740883,108.666431 125.964965,107.589288 C125.973529,107.575002 125.982092,107.563574 125.990656,107.547859 C131.511347,97.8664307 121.185029,77.2364307 110.521874,70.0135736 L110.521874,70.0135736 Z" id="Imported-Layers" fill="#487ABD" opacity="0.200000003" transform="translate(105.800804, 86.659966) rotate(-300.000000) translate(-105.800804, -86.659966) "></path>
                        </g>
                    </g>
                    <ellipse id="Oval-4" fill="#EFF1FD" cx="130" cy="277.5" rx="60" ry="9.5"></ellipse>
                </g>
            </g>
        </g>
    </g>
</svg>